# xmcd
#
# Track frame offsets: 
#        150
#        17160
#        38372
#        52678
#        85568
#        105518
#        129378
#        145929
#        164514
#        196359
#        218472
#        233976
#        258351
#
# Disc length: 3792 seconds
#
# Revision: 0
# Processed by: cddbd v1.5.2PL0 Copyright (c) Steve Scherf et al.
# Submitted via: ExactAudioCopyFreeDBPlugin 1.0
#
DISCID=9c0ece0d
DTITLE=Quique Gòmez and Luca Giordano - Chicago "3011 Studios" Sessions
DYEAR=2012
DGENRE=Blues
TTITLE0=Blow My Blues Away
TTITLE1=The Fool
TTITLE2=You're Fine
TTITLE3=Three Wheels Automobile
TTITLE4=Livin' In a Campsite
TTITLE5=Woman Don't Lie
TTITLE6=Travellin' Man
TTITLE7=Bad Boy
TTITLE8=Outskirts Of Town
TTITLE9=That's Life
TTITLE10=Rocket 88
TTITLE11=Eddie's Shuffle
TTITLE12=Jammin' With Friends (bonus track)
EXTD=
EXTT0=
EXTT1=
EXTT2=
EXTT3=
EXTT4=
EXTT5=
EXTT6=
EXTT7=
EXTT8=
EXTT9=
EXTT10=
EXTT11=
EXTT12=
PLAYORDER=
